<svg xmlns="http://www.w3.org/2000/svg" width="35" height="42" fill="none"><g clip-path="url(#a)"><g clip-path="url(#b)"><g clip-path="url(#c)"><path fill="#333" d="M34.61 30.11a60 60 0 0 1-.715 1.903 24.4 24.4 0 0 1-2.206 3.98q-1.752 2.498-2.855 3.439c-1.125 1.038-2.358 1.579-3.656 1.6-.93 0-2.055-.26-3.374-.8s-2.531-.8-3.634-.8c-1.168 0-2.4.26-3.742.8-1.341.54-2.4.821-3.223.844-1.254.043-2.487-.497-3.742-1.644q-1.2-1.038-2.985-3.57c-1.275-1.794-2.335-3.871-3.158-6.25C.433 27.038 0 24.55 0 22.149c0-2.747.607-5.126 1.797-7.116.9-1.563 2.189-2.867 3.741-3.785A9.94 9.94 0 0 1 10.6 9.82c.995 0 2.293.303 3.916.909q2.432.908 3.114.908c.346 0 1.491-.367 3.438-1.082 1.84-.67 3.397-.929 4.672-.821q5.192.42 7.787 4.088c-3.093 1.881-4.628 4.499-4.585 7.874.022 2.616.973 4.801 2.855 6.531a8.8 8.8 0 0 0 2.812 1.882M25.913 0c.021.28.043.54.043.822 0 2.054-.757 3.98-2.25 5.754-1.817 2.12-4.001 3.33-6.358 3.136a9 9 0 0 1-.044-.78c0-1.967.865-4.087 2.38-5.817.757-.865 1.73-1.601 2.897-2.186C23.772.368 24.876.044 25.915 0z"/></g></g></g><defs><clipPath id="a"><path fill="#fff" d="M0 0h34.61v41.53H0z"/></clipPath><clipPath id="b"><path fill="#fff" d="M0 0h34.61v41.53H0z"/></clipPath><clipPath id="c"><path fill="#fff" d="M0 0H34.61v41.53H0z"/></clipPath></defs></svg>